# xmcd
#
# Track frame offsets: 
#        150
#        17249
#        37756
#        59399
#        76163
#        91136
#        109822
#        123497
#        140354
#        179728
#
# Disc length: 2576 seconds
#
# Revision: 1
# Processed by: cddbd v1.5.2PL0 Copyright (c) Steve Scherf et al.
# Submitted via: ExactAudioCopy v1.0b3
#
DISCID=7d0a0e0a
DTITLE=Buddy Whittington - Buddy Whittington
DYEAR=2008
DGENRE=Blues
TTITLE0=Young and Dumb
TTITLE1=Pay The Band
TTITLE2=Minor Blues
TTITLE3=Stevie Rave On
TTITLE4=Second Banana
TTITLE5=Greenwood
TTITLE6=Can't Be Good For Me
TTITLE7=Romance Classified
TTITLE8=Sure Got Cold After The Rain Fell
TTITLE9=Every Goodbye Ain't Gone
EXTD=
EXTT0=
EXTT1=
EXTT2=
EXTT3=
EXTT4=
EXTT5=
EXTT6=
EXTT7=
EXTT8=
EXTT9=
PLAYORDER=
